<?xml version="1.0" standalone="no"?>
<!DOCTYPE svg PUBLIC "-//W3C//DTD SVG 20010904//EN"
 "http://www.w3.org/TR/2001/REC-SVG-20010904/DTD/svg10.dtd">
<svg version="1.0" xmlns="http://www.w3.org/2000/svg"
 width="700.000000pt" height="700.000000pt" viewBox="0 0 700.000000 700.000000"
 preserveAspectRatio="xMidYMid meet">
<metadata>
Created by potrace 1.14, written by Peter Selinger 2001-2017
</metadata>
<g transform="translate(0.000000,700.000000) scale(0.100000,-0.100000)"
fill="#000000" stroke="none">
<path d="M1895 6989 c-498 -51 -961 -277 -1306 -637 -333 -347 -530 -775 -579
-1261 -14 -140 -14 -3040 0 -3182 51 -512 276 -976 642 -1324 349 -332 774
-526 1257 -575 141 -14 3041 -14 3182 0 1015 102 1799 886 1899 1899 14 141
14 3041 0 3182 -51 510 -273 970 -638 1320 -347 333 -775 530 -1261 579 -124
12 -3074 12 -3196 -1z m2363 -2098 c212 -61 390 -190 508 -367 97 -146 142
-285 151 -464 9 -191 -41 -372 -145 -528 -57 -86 -976 -1022 -1027 -1046 -29
-14 -103 -16 -576 -16 l-543 0 -198 -196 -197 -197 -47 6 c-62 7 -94 39 -101
101 l-6 47 197 197 196 198 0 543 c0 467 2 548 15 575 22 46 946 963 1020
1013 112 75 220 121 345 148 95 21 313 13 408 -14z"/>
<path d="M3914 4690 c-72 -13 -173 -51 -241 -91 -41 -24 -190 -165 -515 -489
l-458 -454 0 -400 0 -400 630 629 c346 347 643 635 659 642 33 14 83 4 112
-23 26 -24 40 -79 28 -112 -5 -15 -177 -195 -382 -399 l-372 -373 401 0 401 0
190 193 c201 204 252 273 293 395 42 126 46 254 13 387 -55 223 -252 421 -478
480 -76 19 -214 27 -281 15z"/>
<path d="M3006 2850 l-151 -150 400 0 400 0 143 143 c78 78 142 146 142 150 0
4 -176 7 -392 7 l-392 0 -150 -150z"/>
</g>
</svg>
